<svg viewBox="1 0 511.99897 511" xmlns="http://www.w3.org/2000/svg"><path d="m499.375 57.554688c-13.519531 0-337.796875 0-356.480469 0l-6.796875-45.1875c-.371094-2.46875-2.492187-4.292969-4.988281-4.292969h-111.75c-2.496094 0-4.617187 1.824219-4.988281 4.292969l-6.796875 45.1875h.003906v441.304687c0 2.796875 2.261719 5.050781 5.046875 5.050781h486.75c2.785156 0 5.050781-2.253906 5.050781-5.050781v-436.257813c0-2.785156-2.265625-5.046874-5.050781-5.046874zm0 0" fill="#4172cc"/><path d="m504.425781 62.601562v436.257813c0 2.796875-2.265625 5.050781-5.050781 5.050781h-486.75c-2.785156 0-5.046875-2.253906-5.046875-5.050781v-441.304687h491.796875c2.785156 0 5.050781 2.261718 5.050781 5.046874zm0 0" fill="#f29500"/><path d="m142.898438 57.554688h-135.320313l6.796875-45.191407c.371094-2.464843 2.492188-4.292969 4.988281-4.292969h111.75c2.492188 0 4.613281 1.828126 4.988281 4.292969zm0 0" fill="#f44545"/><path d="m504.425781 62.601562v56.5625h-496.847656v-61.609374h491.796875c2.785156 0 5.050781 2.261718 5.050781 5.046874zm0 0" fill="#d63030"/><path d="m504.425781 62.601562v436.257813c0 2.796875-2.265625 5.050781-5.050781 5.050781h-458.726562c-2.785157 0-5.046876-2.253906-5.046876-5.050781v-441.304687h463.773438c2.785156 0 5.050781 2.261718 5.050781 5.046874zm0 0" fill="#ffb52d"/><path d="m142.898438 57.554688h-107.296876l6.796876-45.191407c.371093-2.464843 2.492187-4.292969 4.988281-4.292969h83.726562c2.492188 0 4.613281 1.828126 4.988281 4.292969zm0 0" fill="#fc7979"/><path d="m504.425781 62.601562v56.5625h-468.824219v-61.609374h463.773438c2.785156 0 5.050781 2.261718 5.050781 5.046874zm0 0" fill="#f44545"/><path d="m429.777344 175.191406v188.507813c0 3.164062-2.554688 5.71875-5.71875 5.71875h-336.117188c-3.160156 0-5.714844-2.554688-5.714844-5.71875v-188.507813c0-3.160156 2.554688-5.726562 5.714844-5.726562h336.117188c3.164062 0 5.71875 2.566406 5.71875 5.726562zm0 0" fill="#d63030"/><path d="m429.777344 175.191406v163.464844h-308.734375c-3.160157 0-5.714844-2.554688-5.714844-5.714844v-163.476562h308.730469c3.164062 0 5.71875 2.566406 5.71875 5.726562zm0 0" fill="#f44545"/><path d="m499.375 49.980469h-349.960938l-5.828124-38.742188c-.933594-6.222656-6.179688-10.738281-12.476563-10.738281h-111.75c-6.292969 0-11.542969 4.515625-12.476563 10.742188-7.128906 47.441406-6.8124995 45.167968-6.8554682 45.800781-.0390626.578125-.02343755 166.453125-.0273438 441.820312 0 6.960938 5.664062 12.625 12.625 12.625h486.75c6.960938 0 12.625-5.664062 12.625-12.625v-436.257812c0-6.960938-5.664062-12.625-12.625-12.625zm-477.835938-34.332031h107.394532l5.164062 34.332031h-117.726562zm475.3125 480.691406h-481.703124v-369.601563h481.703124zm0-384.75h-481.703124v-46.460938h481.703124zm0 0"/><path d="m33.496094 95.425781h301.945312c4.183594 0 7.574219-3.390625 7.574219-7.574219 0-4.183593-3.390625-7.574218-7.574219-7.574218h-301.945312c-4.183594 0-7.574219 3.390625-7.574219 7.574218 0 4.183594 3.390625 7.574219 7.574219 7.574219zm0 0"/><path d="m365.738281 95.425781h71.023438c4.183593 0 7.574219-3.390625 7.574219-7.574219 0-4.183593-3.390626-7.574218-7.574219-7.574218h-71.023438c-4.183593 0-7.574219 3.390625-7.574219 7.574218 0 4.183594 3.390626 7.574219 7.574219 7.574219zm0 0"/><path d="m478.503906 87.851562c0 5.578126-4.519531 10.097657-10.097656 10.097657s-10.097656-4.519531-10.097656-10.097657c0-5.578124 4.519531-10.097656 10.097656-10.097656s10.097656 4.519532 10.097656 10.097656zm0 0"/><path d="m87.945312 376.996094h336.109376c7.332031 0 13.296874-5.964844 13.296874-13.296875v-188.507813c0-7.332031-5.964843-13.296875-13.296874-13.296875h-252.605469c-4.183594 0-7.574219 3.390625-7.574219 7.574219s3.390625 7.574219 7.574219 7.574219h250.753906v184.804687h-332.40625v-184.804687h51.355469c4.183594 0 7.574218-3.390625 7.574218-7.574219s-3.390624-7.574219-7.574218-7.574219h-53.207032c-7.332031 0-13.296874 5.964844-13.296874 13.296875v188.507813c0 7.332031 5.964843 13.296875 13.296874 13.296875zm0 0"/><path d="m428.097656 408.441406h-344.195312c-4.183594 0-7.574219 3.390625-7.574219 7.574219s3.390625 7.574219 7.574219 7.574219h344.195312c4.183594 0 7.574219-3.390625 7.574219-7.574219s-3.390625-7.574219-7.574219-7.574219zm0 0"/><path d="m428.097656 454.9375h-111.929687c-4.183594 0-7.574219 3.390625-7.574219 7.574219 0 4.183593 3.390625 7.574219 7.574219 7.574219h111.929687c4.183594 0 7.574219-3.390626 7.574219-7.574219 0-4.183594-3.390625-7.574219-7.574219-7.574219zm0 0"/><path d="m285.871094 454.9375h-201.96875c-4.183594 0-7.574219 3.390625-7.574219 7.574219 0 4.183593 3.390625 7.574219 7.574219 7.574219h201.96875c4.183594 0 7.574218-3.390626 7.574218-7.574219 0-4.183594-3.390624-7.574219-7.574218-7.574219zm0 0"/><path d="m196.597656 225.238281c0-3.652343-4.820312-5.992187-7.746094-5.992187-2.484374 0-5.113281 1.167968-6.722656 4.238281l-35.363281 69.710937c-.585937 1.023438-.878906 2.191407-.878906 3.214844 0 3.507813 2.339843 5.699219 5.40625 5.699219h35.953125v18.851563c0 3.363281 3.796875 5.113281 7.746094 5.113281 3.796874 0 7.742187-1.75 7.742187-5.113281v-18.851563h7.164063c2.773437 0 5.257812-3.652344 5.257812-7.160156 0-3.65625-1.753906-7.308594-5.257812-7.308594h-7.164063v-20.167969c0-3.652344-3.945313-5.113281-7.742187-5.113281-3.949219 0-7.746094 1.460937-7.746094 5.113281v20.167969h-21.484375l30.105469-60.0625c.4375-.878906.730468-1.609375.730468-2.339844zm0 0"/><path d="m289.101562 294.363281v-42.527343c0-23.675782-14.46875-32.589844-32.882812-32.589844-18.558594 0-32.734375 8.914062-32.734375 32.589844v42.527343c0 23.671875 14.175781 32.589844 32.734375 32.589844 18.414062 0 32.882812-8.917969 32.882812-32.589844zm-50.125 0v-42.527343c0-12.859376 6.28125-18.851563 17.242188-18.851563 10.816406 0 17.390625 5.992187 17.390625 18.851563v42.527343c0 12.859375-6.574219 18.851563-17.390625 18.851563-10.960938 0-17.242188-5.992188-17.242188-18.851563zm0 0"/><path d="m347.554688 225.238281c0-3.652343-4.824219-5.992187-7.746094-5.992187-2.484375 0-5.117188 1.167968-6.722656 4.238281l-35.367188 69.710937c-.582031 1.023438-.875 2.191407-.875 3.214844 0 3.507813 2.335938 5.699219 5.40625 5.699219h35.949219v18.851563c0 3.363281 3.800781 5.113281 7.746093 5.113281 3.800782 0 7.746094-1.75 7.746094-5.113281v-18.851563h7.160156c2.777344 0 5.261719-3.652344 5.261719-7.160156 0-3.65625-1.753906-7.308594-5.261719-7.308594h-7.160156v-20.167969c0-3.652344-3.945312-5.113281-7.746094-5.113281-3.945312 0-7.746093 1.460937-7.746093 5.113281v20.167969h-21.480469l30.105469-60.0625c.4375-.878906.730469-1.609375.730469-2.339844zm0 0"/></svg>