<svg xmlns="http://www.w3.org/2000/svg" xmlns:xlink="http://www.w3.org/1999/xlink" width="24" height="24" viewBox="0 0 24 24">
    <defs>
        <path id="a" d="M9 0C4.582 0 1 3.65 1 8.15c0 5.36 5.201 7.926 5.853 8.523.666.61 1.215 1.977 1.437 2.752.108.376.41.567.71.575.3-.009.602-.2.71-.575.222-.775.771-2.141 1.437-2.752C11.799 16.076 17 13.51 17 8.15 17 3.65 13.418 0 9 0zm0 10.373c-.78 0-1.5-.424-1.89-1.111a2.259 2.259 0 0 1 0-2.223A2.175 2.175 0 0 1 9 5.927c1.205 0 2.182.996 2.182 2.223 0 1.228-.977 2.223-2.182 2.223z"/>
    </defs>
    <g fill="none" fill-rule="evenodd" transform="translate(3 2)">
        <mask id="b" fill="#fff">
            <use xlink:href="#a"/>
        </mask>
        <g fill="#215273" fill-opacity=".60" mask="url(#b)">
            <path d="M-3-2h24v24H-3z"/>
        </g>
    </g>
</svg>